<svg width="100%" viewBox="0 0 900 600" role="img" xmlns="http://www.w3.org/2000/svg">
<title>YeelightBar — Devices</title>
<desc>Dark Razer-themed app window, Devices tab: auto-discovered Yeelight lamps with multi-select checkboxes to form a control group, plus manual IP entry.</desc>
<defs><linearGradient id="win3" x1="0" y1="0" x2="0" y2="1"><stop offset="0" stop-color="#171B17"/><stop offset="1" stop-color="#121512"/></linearGradient></defs>
<rect x="1" y="1" width="898" height="598" rx="14" fill="url(#win3)" stroke="#44D62C" stroke-opacity="0.22"/>
<circle cx="24" cy="22" r="6" fill="#FF5F57"/><circle cx="44" cy="22" r="6" fill="#FEBC2E"/><circle cx="64" cy="22" r="6" fill="#28C840"/>
<rect x="1" y="40" width="212" height="559" fill="#11140F"/>
<path d="M30 56 L24 70 L30 70 L27 80 L38 64 L31 64 Z" fill="#44D62C"/>
<text x="44" y="62" font-family="Arial" font-size="12.5" font-weight="900" letter-spacing="0.6" fill="#EAF2E8">SCREEN LIGHT BA…</text>
<circle cx="46" cy="74" r="3" fill="#44D62C"/><text x="54" y="78" font-family="monospace" font-size="9" fill="#8FA889">ONLINE · 192.168.88.110</text>
<rect x="170" y="52" width="30" height="16" rx="8" fill="#44D62C"/><circle cx="192" cy="60" r="6" fill="#EAF2E8"/>
<line x1="14" y1="96" x2="200" y2="96" stroke="#44D62C" stroke-opacity="0.2"/>
<text x="22" y="126" font-family="Arial" font-size="12" font-weight="700" letter-spacing="0.8" fill="#9AA892">☀  СВЕТ</text>
<text x="22" y="166" font-family="Arial" font-size="12" font-weight="700" letter-spacing="0.8" fill="#9AA892">▦  ЭФФЕКТЫ</text>
<text x="22" y="206" font-family="Arial" font-size="12" font-weight="700" letter-spacing="0.8" fill="#9AA892">◫  СЦЕНЫ</text>
<rect x="8" y="226" width="196" height="30" rx="4" fill="#44D62C" fill-opacity="0.14"/><rect x="8" y="226" width="3" height="30" fill="#44D62C"/>
<text x="22" y="246" font-family="Arial" font-size="12" font-weight="700" letter-spacing="0.8" fill="#44D62C">◍  УСТРОЙСТВА</text>
<text x="238" y="66" font-family="Arial" font-size="16" font-weight="900" letter-spacing="1.2" fill="#EAF2E8">УСТРОЙСТВА</text>
<rect x="238" y="84" width="442" height="34" rx="6" fill="#44D62C" fill-opacity="0.16" stroke="#44D62C" stroke-opacity="0.6"/>
<text x="459" y="106" text-anchor="middle" font-family="Arial" font-size="13" font-weight="700" fill="#44D62C">📡  Автопоиск ламп в сети</text>
<path d="M249 138 L688 138 L688 392 L680 400 L238 400 L238 146 Z" fill="#232723" stroke="#44D62C" stroke-opacity="0.3"/>
<text x="252" y="158" font-family="Arial" font-size="10" font-weight="900" letter-spacing="1.2" fill="#44D62C">НАЙДЕННЫЕ ЛАМПЫ</text>
<text x="252" y="176" font-family="Arial" font-size="10" fill="#8FA889">Отметь несколько ламп — они управляются вместе (питание, цвет, сцены, эффекты).</text>
<g font-family="Arial">
<rect x="252" y="194" width="16" height="16" rx="3" fill="#44D62C"/><text x="256" y="206" font-size="12" font-weight="900" fill="#0E110E">✓</text>
<text x="280" y="206" font-size="12.5" fill="#EAF2E8">⚡ Screen Light Bar Pro</text><text x="446" y="206" font-size="10" fill="#7E8A7A">192.168.88.110</text>
<rect x="540" y="195" width="62" height="16" rx="8" fill="#44D62C" fill-opacity="0.16"/><text x="571" y="207" text-anchor="middle" font-size="9" fill="#44D62C">основная</text>
<rect x="612" y="194" width="64" height="18" rx="4" fill="#2C312C" stroke="#3a423a"/><text x="644" y="207" text-anchor="middle" font-size="10" fill="#C7D3C2">Мигнуть</text>
<rect x="252" y="230" width="16" height="16" rx="3" fill="#44D62C"/><text x="256" y="242" font-size="12" font-weight="900" fill="#0E110E">✓</text>
<text x="280" y="242" font-size="12.5" fill="#EAF2E8">≋ strip8</text><text x="446" y="242" font-size="10" fill="#7E8A7A">192.168.88.235</text>
<rect x="612" y="230" width="64" height="18" rx="4" fill="#2C312C" stroke="#3a423a"/><text x="644" y="243" text-anchor="middle" font-size="10" fill="#C7D3C2">Мигнуть</text>
<rect x="252" y="266" width="16" height="16" rx="3" fill="none" stroke="#5A6A55" stroke-width="1.5"/>
<text x="280" y="278" font-size="12.5" fill="#9AA892">💡 ceilb</text><text x="446" y="278" font-size="10" fill="#7E8A7A">192.168.88.100</text>
<rect x="612" y="266" width="64" height="18" rx="4" fill="#2C312C" stroke="#3a423a"/><text x="644" y="279" text-anchor="middle" font-size="10" fill="#C7D3C2">Мигнуть</text>
<rect x="252" y="302" width="16" height="16" rx="3" fill="none" stroke="#5A6A55" stroke-width="1.5"/>
<text x="280" y="314" font-size="12.5" fill="#9AA892">💡 ceilb</text><text x="446" y="314" font-size="10" fill="#7E8A7A">192.168.88.102</text>
<rect x="612" y="302" width="64" height="18" rx="4" fill="#2C312C" stroke="#3a423a"/><text x="644" y="315" text-anchor="middle" font-size="10" fill="#C7D3C2">Мигнуть</text>
<rect x="252" y="338" width="16" height="16" rx="3" fill="none" stroke="#5A6A55" stroke-width="1.5"/>
<text x="280" y="350" font-size="12.5" fill="#9AA892">💡 ceilb</text><text x="446" y="350" font-size="10" fill="#7E8A7A">192.168.88.143</text>
<rect x="612" y="338" width="64" height="18" rx="4" fill="#2C312C" stroke="#3a423a"/><text x="644" y="351" text-anchor="middle" font-size="10" fill="#C7D3C2">Мигнуть</text>
</g>
<path d="M249 416 L688 416 L688 484 L680 492 L238 492 L238 424 Z" fill="#232723" stroke="#44D62C" stroke-opacity="0.3"/>
<text x="252" y="436" font-family="Arial" font-size="10" font-weight="900" letter-spacing="1.2" fill="#44D62C">ДОБАВИТЬ ВРУЧНУЮ ПО IP</text>
<rect x="252" y="450" width="330" height="26" rx="5" fill="#0E110E" stroke="#3a423a"/><text x="266" y="467" font-family="monospace" font-size="11" fill="#6E7A6A">192.168.1.x</text>
<rect x="592" y="450" width="84" height="26" rx="5" fill="#44D62C"/><text x="634" y="467" text-anchor="middle" font-family="Arial" font-size="11" font-weight="700" fill="#0E110E">Добавить</text>
</svg>