<svg width="100%" viewBox="0 0 900 600" role="img" xmlns="http://www.w3.org/2000/svg">
<title>YeelightBar — Effects / Screen</title>
<desc>Dark Razer-themed app window: sidebar, Effects tab, a to-scale two-monitor map with lamp zones, and per-lamp display/zone/segment controls.</desc>
<defs>
<linearGradient id="win" x1="0" y1="0" x2="0" y2="1"><stop offset="0" stop-color="#171B17"/><stop offset="1" stop-color="#121512"/></linearGradient>
<linearGradient id="topband" x1="0" y1="0" x2="1" y2="0"><stop offset="0" stop-color="#2E5C9E"/><stop offset="0.5" stop-color="#3A7AC0"/><stop offset="1" stop-color="#2E9E8A"/></linearGradient>
<linearGradient id="botband" x1="0" y1="0" x2="1" y2="0"><stop offset="0" stop-color="#C77B3A"/><stop offset="0.5" stop-color="#D9A55E"/><stop offset="1" stop-color="#8E6E3A"/></linearGradient>
</defs>
<rect x="1" y="1" width="898" height="598" rx="14" fill="url(#win)" stroke="#44D62C" stroke-opacity="0.22"/>
<circle cx="24" cy="22" r="6" fill="#FF5F57"/><circle cx="44" cy="22" r="6" fill="#FEBC2E"/><circle cx="64" cy="22" r="6" fill="#28C840"/>
<rect x="1" y="40" width="212" height="559" fill="#11140F"/>
<path d="M30 56 L24 70 L30 70 L27 80 L38 64 L31 64 Z" fill="#44D62C"/>
<text x="44" y="62" font-family="Arial" font-size="12.5" font-weight="900" letter-spacing="0.6" fill="#EAF2E8">SCREEN LIGHT BA…</text>
<circle cx="46" cy="74" r="3" fill="#44D62C"/><text x="54" y="78" font-family="monospace" font-size="9" fill="#8FA889">ONLINE · 192.168.88.110</text>
<rect x="170" y="52" width="30" height="16" rx="8" fill="#44D62C"/><circle cx="192" cy="60" r="6" fill="#EAF2E8"/>
<line x1="14" y1="96" x2="200" y2="96" stroke="#44D62C" stroke-opacity="0.2"/>
<text x="22" y="124" font-family="Arial" font-size="12" font-weight="700" letter-spacing="0.8" fill="#9AA892">☀  СВЕТ</text>
<rect x="8" y="146" width="196" height="30" rx="4" fill="#44D62C" fill-opacity="0.14"/><rect x="8" y="146" width="3" height="30" fill="#44D62C"/>
<text x="22" y="166" font-family="Arial" font-size="12" font-weight="700" letter-spacing="0.8" fill="#44D62C">▦  ЭФФЕКТЫ</text>
<text x="22" y="206" font-family="Arial" font-size="12" font-weight="700" letter-spacing="0.8" fill="#9AA892">◫  СЦЕНЫ</text>
<text x="22" y="246" font-family="Arial" font-size="12" font-weight="700" letter-spacing="0.8" fill="#9AA892">◍  УСТРОЙСТВА</text>
<text x="238" y="64" font-family="Arial" font-size="16" font-weight="900" letter-spacing="1.2" fill="#EAF2E8">ЭФФЕКТЫ</text>
<rect x="238" y="80" width="320" height="30" rx="6" fill="#232723" stroke="#44D62C" stroke-opacity="0.25"/>
<text x="288" y="100" text-anchor="middle" font-family="Arial" font-size="12" fill="#9AA892">Выкл</text>
<rect x="345" y="83" width="106" height="24" rx="4" fill="#44D62C"/><text x="398" y="100" text-anchor="middle" font-family="Arial" font-size="12" font-weight="700" fill="#0E110E">Экран</text>
<text x="505" y="100" text-anchor="middle" font-family="Arial" font-size="12" fill="#9AA892">Музыка</text>
<text x="238" y="134" font-family="Arial" font-size="11" fill="#9AA892">Подключено мониторов: 2  ·  нажми на монитор, чтобы выбрать лампу</text>
<rect x="258" y="170" width="150" height="84" rx="6" fill="#0C100C" stroke="#5A6A55" stroke-width="1.2"/>
<rect x="258" y="236" width="150" height="18" rx="2" fill="url(#botband)" opacity="0.9"/>
<text x="333" y="206" text-anchor="middle" font-family="Arial" font-size="20" font-weight="900" fill="#EAF2E8">1</text>
<text x="333" y="222" text-anchor="middle" font-family="monospace" font-size="8.5" fill="#C7D3C2">1920×1080</text>
<text x="333" y="249" text-anchor="middle" font-family="Arial" font-size="8" font-weight="700" fill="#0E110E">Strip · Низ</text>
<rect x="430" y="150" width="404" height="120" rx="6" fill="#0C100C" stroke="#44D62C" stroke-width="2"/>
<rect x="430" y="150" width="404" height="18" rx="2" fill="url(#topband)" opacity="0.92"/>
<text x="632" y="222" text-anchor="middle" font-family="Arial" font-size="24" font-weight="900" fill="#EAF2E8">2</text>
<text x="632" y="240" text-anchor="middle" font-family="monospace" font-size="9.5" fill="#C7D3C2">5120×1440 · основной</text>
<text x="632" y="163" text-anchor="middle" font-family="Arial" font-size="8.5" font-weight="700" fill="#EAF2E8">Bar · Верх</text>
<path d="M247 300 L846 300 L846 384 L838 392 L238 392 L238 308 Z" fill="#232723" stroke="#44D62C" stroke-opacity="0.3"/>
<text x="252" y="320" font-family="Arial" font-size="10" font-weight="900" letter-spacing="1.2" fill="#44D62C">КАКАЯ ЛАМПА · ЭКРАН · ЗОНА</text>
<text x="254" y="345" font-family="Arial" font-size="12" fill="#EAF2E8">~  Screen Light Bar Pro</text>
<rect x="636" y="333" width="96" height="20" rx="4" fill="#2C312C" stroke="#3a423a"/><text x="684" y="347" text-anchor="middle" font-family="Arial" font-size="11" fill="#C7D3C2">Монитор 2 ▾</text>
<rect x="742" y="333" width="92" height="20" rx="4" fill="#2C312C" stroke="#3a423a"/><text x="788" y="347" text-anchor="middle" font-family="Arial" font-size="11" fill="#44D62C">Верх ▾</text>
<text x="254" y="375" font-family="Arial" font-size="12" fill="#EAF2E8">≋  strip8</text>
<rect x="486" y="363" width="46" height="18" rx="4" fill="#44D62C" fill-opacity="0.14" stroke="#44D62C" stroke-opacity="0.5"/><text x="509" y="376" text-anchor="middle" font-family="monospace" font-size="10" font-weight="700" fill="#44D62C">12 ◧</text>
<text x="540" y="375" font-family="Arial" font-size="11" fill="#9AA892">по сегментам</text>
<rect x="636" y="363" width="96" height="20" rx="4" fill="#2C312C" stroke="#3a423a"/><text x="684" y="377" text-anchor="middle" font-family="Arial" font-size="11" fill="#C7D3C2">Монитор 1 ▾</text>
<rect x="742" y="363" width="92" height="20" rx="4" fill="#2C312C" stroke="#3a423a"/><text x="788" y="377" text-anchor="middle" font-family="Arial" font-size="11" fill="#44D62C">Низ ▾</text>
<path d="M247 406 L846 406 L846 560 L838 568 L238 568 L238 414 Z" fill="#232723" stroke="#44D62C" stroke-opacity="0.3"/>
<text x="252" y="426" font-family="Arial" font-size="10" font-weight="900" letter-spacing="1.2" fill="#44D62C">НАСТРОЙКА</text>
<text x="254" y="452" font-family="Arial" font-size="11" fill="#C7D3C2">Размер зоны</text>
<rect x="360" y="448" width="380" height="5" rx="2.5" fill="#34403 4"/><rect x="360" y="448" width="72" height="5" rx="2.5" fill="#44D62C"/><circle cx="432" cy="450.5" r="7" fill="#EAF2E8"/>
<rect x="756" y="442" width="44" height="18" rx="3" fill="#44D62C" fill-opacity="0.12" stroke="#44D62C" stroke-opacity="0.4"/><text x="778" y="455" text-anchor="middle" font-family="monospace" font-size="10" font-weight="700" fill="#44D62C">19%</text>
<text x="254" y="496" font-family="Arial" font-size="11" fill="#C7D3C2">Плавность</text>
<rect x="360" y="492" width="380" height="5" rx="2.5" fill="#34403 4"/><rect x="360" y="492" width="133" height="5" rx="2.5" fill="#44D62C"/><circle cx="493" cy="494.5" r="7" fill="#EAF2E8"/>
<rect x="756" y="486" width="44" height="18" rx="3" fill="#44D62C" fill-opacity="0.12" stroke="#44D62C" stroke-opacity="0.4"/><text x="778" y="499" text-anchor="middle" font-family="monospace" font-size="10" font-weight="700" fill="#44D62C">35%</text>
<text x="254" y="540" font-family="Arial" font-size="11" fill="#C7D3C2">Насыщенность</text>
<rect x="360" y="536" width="380" height="5" rx="2.5" fill="#34403 4"/><rect x="360" y="536" width="266" height="5" rx="2.5" fill="#44D62C"/><circle cx="626" cy="538.5" r="7" fill="#EAF2E8"/>
<rect x="756" y="530" width="44" height="18" rx="3" fill="#44D62C" fill-opacity="0.12" stroke="#44D62C" stroke-opacity="0.4"/><text x="778" y="543" text-anchor="middle" font-family="monospace" font-size="10" font-weight="700" fill="#44D62C">1.5×</text>
</svg>